# xmcd CD database file
#
# Track frame offsets:
#	150
#	14427
#	30779
#	48050
#	65090
#	85940
#	106429
#	122070
#	136545
#	149739
#	159484
#	188168
#	205376
#	221207
#	238536
#	250285
#	260073
#	276781
#	299971
#	317787
#
# Disc length: 4433 seconds
#
# Revision: 0
# Processed by: cddbd v1.5.1PL0 Copyright (c) Steve Scherf et al.
# Submitted via: CDex 1.51
#
DISCID=37114f14
DTITLE=Various Artist - Brewed in Texas, Volume 2
DYEAR=2005
DGENRE=Country
TTITLE0=Randy Rogers/She's Acting Single (I'm Drinkin' Doubles)
TTITLE1=Charlie Robison/Barlight
TTITLE2=Jason Boland/Drinkin' Song
TTITLE3=The Lost Trailers/Crossroads
TTITLE4=Kevin Fowler/The Lord Loves the Drinkin' Man
TTITLE5=Roger Creager/I Say When I Drink What I THink When I'm Sober
TTITLE6=The Derailers/Bar Exam
TTITLE7=Rick Trevino/Another Six Pack Under
TTITLE8=Gary Nunn/Corona con Lima
TTITLE9=Bob Schneider/Lubricate the Death Machine
TTITLE10=Honeybrowne/Julie at the Bar
TTITLE11=Asleep at the Wheel/The Letter (That Johnny Walker Read)
TTITLE12=Billy Joe Shaver/Drinkin/ Back
TTITLE13=Old 97s/Niteclub
TTITLE14=Flaco Jimenez/En el Cielo No Hay Cerveza
TTITLE15=Townes van Zandt/Talking Thunderbird Blues
TTITLE16=Trish Murphy/Scorpio Tequila
TTITLE17=Guy Clark/Out in the Parking Lot
TTITLE18=Ray Wylie Hubbard/The Way of the Fallen Is Hard
TTITLE19=Chance/I Came to Drink
EXTD=YEAR: 2005
EXTT0=
EXTT1=
EXTT2=
EXTT3=
EXTT4=
EXTT5=
EXTT6=
EXTT7=
EXTT8=
EXTT9=
EXTT10=
EXTT11=
EXTT12=
EXTT13=
EXTT14=
EXTT15=
EXTT16=
EXTT17=
EXTT18=
EXTT19=
PLAYORDER=
